<svg xmlns="http://www.w3.org/2000/svg" width="24" height="24" viewBox="0 0 24 24">
  <g id="Group_1320" data-name="Group 1320" transform="translate(-6.659 -5)">
    <path id="Path_6652" data-name="Path 6652" d="M16.954,29a1.7,1.7,0,0,1-.638-.133A1.6,1.6,0,0,1,15.291,27.4V15.56L7.142,7.72a1.563,1.563,0,0,1-.36-1.733A1.735,1.735,0,0,1,8.334,5H29.012a1.665,1.665,0,0,1,1.525.987,1.563,1.563,0,0,1-.36,1.733l-8.122,7.84v8.533a1.466,1.466,0,0,1-.5,1.12L18.119,28.52A1.627,1.627,0,0,1,16.954,29Z" transform="translate(0)" fill="#ffc20a"/>
  </g>
</svg>
