<svg id="Component_3_1" data-name="Component 3 – 1" xmlns="http://www.w3.org/2000/svg" width="46" height="46" viewBox="0 0 46 46">
  <g id="icon_inbox" transform="translate(1337 2728)">
    <g id="Ellipse_33" data-name="Ellipse 33" transform="translate(-1337 -2728)" fill="#fff" stroke="#0a2a3a" stroke-width="2">
      <circle cx="23" cy="23" r="23" stroke="none"/>
      <circle cx="23" cy="23" r="22" fill="none"/>
    </g>
  </g>
  <g id="icon_add_textbox" transform="translate(13.343 10)">
    <g id="Group_1444" data-name="Group 1444" transform="translate(0)">
      <path id="Path_6691" data-name="Path 6691" d="M2.452,0H15.217a1.025,1.025,0,0,1,.433.144l3.678,3.75a.623.623,0,0,1,.216.433V23.222a2.478,2.478,0,0,1-2.452,2.452H2.452A2.478,2.478,0,0,1,0,23.222V2.452A2.432,2.432,0,0,1,2.452,0ZM15.145,1.37V4.543h3.1Zm3.173,4.4H14.5a.636.636,0,0,1-.577-.649V1.226H2.452A1.264,1.264,0,0,0,1.226,2.452v20.77a1.264,1.264,0,0,0,1.226,1.226h14.64a1.264,1.264,0,0,0,1.226-1.226Z" fill="#0b2b3a" stroke="#0b2b3a" stroke-width="1"/>
      <path id="Path_6692" data-name="Path 6692" d="M43.348,86.232a.616.616,0,0,1,0-1.232h6.087a.617.617,0,1,1,0,1.232Z" transform="translate(-39.676 -78.872)" fill="#0b2b3a" stroke="#0b2b3a" stroke-width="1"/>
      <path id="Path_6693" data-name="Path 6693" d="M43.344,128.232a.616.616,0,0,1,0-1.232H55.5a.616.616,0,0,1,0,1.232Z" transform="translate(-39.652 -117.843)" fill="#0b2b3a" stroke="#0b2b3a" stroke-width="1"/>
      <path id="Path_6694" data-name="Path 6694" d="M43.344,170.232a.616.616,0,0,1,0-1.232H55.5a.616.616,0,0,1,0,1.232Z" transform="translate(-39.652 -156.815)" fill="#0b2b3a" stroke="#0b2b3a" stroke-width="1"/>
      <path id="Path_6695" data-name="Path 6695" d="M43.344,213.232a.616.616,0,0,1,0-1.232H55.5a.616.616,0,0,1,0,1.232Z" transform="translate(-39.652 -196.715)" fill="#0b2b3a" stroke="#0b2b3a" stroke-width="1"/>
      <path id="Path_6696" data-name="Path 6696" d="M43.344,255.232a.616.616,0,0,1,0-1.232H55.5a.616.616,0,0,1,0,1.232Z" transform="translate(-39.652 -235.687)" fill="#0b2b3a" stroke="#0b2b3a" stroke-width="1"/>
      <path id="Path_6697" data-name="Path 6697" d="M43.344,297.232a.616.616,0,0,1,0-1.232H55.5a.616.616,0,0,1,0,1.232Z" transform="translate(-39.652 -274.674)" fill="#0b2b3a" stroke="#0b2b3a" stroke-width="1"/>
    </g>
  </g>
</svg>
