<svg xmlns="http://www.w3.org/2000/svg" width="46" height="46" viewBox="0 0 46 46">
    <g transform="translate(558 2354)">
        <circle cx="23" cy="23" r="23" fill="#0b2b3a" transform="translate(-558 -2354)"/>
        <g>
            <path fill="#f0f0f0" d="M-266.718 460a5.64 5.64 0 0 0-5.571 5.675 5.518 5.518 0 0 0 5.571 5.476 5.516 5.516 0 0 0 5.571-5.471 5.64 5.64 0 0 0-5.571-5.68zm0 12.349a9.1 9.1 0 0 0-9.285 8.89v3.447a1.347 1.347 0 0 0 1.367 1.314h15.822a1.345 1.345 0 0 0 1.378-1.311v-3.447a9.1 9.1 0 0 0-9.282-8.892z" transform="translate(-267.997 -2804)"/>
        </g>
    </g>
</svg>
