<svg xmlns="http://www.w3.org/2000/svg" width="31" height="35" viewBox="0 0 31 35">
  <g id="Group_258" data-name="Group 258" transform="translate(516.266 -570.543)">
    <g id="Group_243" data-name="Group 243" transform="translate(-516.266 570.544)">
      <g id="Group_242" data-name="Group 242">
        <path id="Path_166" data-name="Path 166" d="M-490.811,601.264a2.433,2.433,0,0,0-.741-1.994l-6.3-5.953a2.244,2.244,0,0,0-2.818-.218l-1.748,1.183a1.036,1.036,0,0,1-1.416-.223,43.59,43.59,0,0,1-2.624-3.822,43.866,43.866,0,0,1-2.218-4.1,1.16,1.16,0,0,1,.393-1.447l1.749-1.183a2.52,2.52,0,0,0,.978-2.789l-2.536-8.5a2.318,2.318,0,0,0-1.417-1.536,2.237,2.237,0,0,0-2.047.26l-2.636,1.784c-1.839,1.244-2.482,4.116-1.81,8.085a36.814,36.814,0,0,0,5.019,12.489,35.148,35.148,0,0,0,8.723,9.983,11.972,11.972,0,0,0,4.3,2.12,4.313,4.313,0,0,0,3.44-.5l2.635-1.783a2.483,2.483,0,0,0,1.074-1.853m-7.7-7.187,6.3,5.954a1.413,1.413,0,0,1,.431,1.157,1.452,1.452,0,0,1-.462.948l-8.388-7.861.479-.324a1.3,1.3,0,0,1,1.637.126m-11.335-22.434a1.343,1.343,0,0,1,.823.892l2.537,8.5a1.464,1.464,0,0,1-.569,1.621l-.441.3-3.361-11.264a1.3,1.3,0,0,1,.837-.1,1.374,1.374,0,0,1,.174.051m14.81,32.4c-1.461.989-3.888.4-6.659-1.6a34.159,34.159,0,0,1-8.463-9.7,35.765,35.765,0,0,1-4.883-12.124c-.59-3.485-.09-6.051,1.371-7.04l1.955-1.324,3.366,11.28-.455.308a2.213,2.213,0,0,0-.748,2.761,44.732,44.732,0,0,0,2.27,4.192,44.135,44.135,0,0,0,2.684,3.91,1.975,1.975,0,0,0,2.7.429l.415-.281,8.4,7.872Z" transform="translate(516.266 -570.544)" fill="#f0f0f0"/>
      </g>
      <path id="Path_167" data-name="Path 167" d="M-485.863,577.722a.756.756,0,0,0,.794-.744.787.787,0,0,0-.794-.737.785.785,0,0,0-.787.737A.751.751,0,0,0-485.863,577.722Zm-3.043,0c1.141,0,1.921-.6,1.921-1.532,0-1.07-1.049-1.3-1.538-1.46-.737-.234-1-.34-1-.595,0-.213.185-.347.49-.347a.639.639,0,0,1,.708.56v.056c0,.036.05.057.135.057h1.042a.124.124,0,0,0,.135-.135v-.035a1.766,1.766,0,0,0-1.971-1.645c-1.056,0-1.85.589-1.85,1.5,0,1.021.992,1.4,1.652,1.595.517.156.864.213.864.482,0,.135-.092.354-.489.354-.439,0-.723-.262-.723-.5V576c0-.042-.049-.071-.134-.071h-1.042a.124.124,0,0,0-.135.135v.071C-490.841,577.1-490.068,577.724-488.906,577.724Zm-3.056,0a.756.756,0,0,0,.794-.744.787.787,0,0,0-.794-.737.785.785,0,0,0-.787.737A.75.75,0,0,0-491.962,577.724Zm-3.135-1.111a.647.647,0,0,1-.652-.716v-1.389a.648.648,0,0,1,.652-.716.649.649,0,0,1,.659.716V575.9A.648.648,0,0,1-495.1,576.613Zm0,1.141a1.836,1.836,0,0,0,1.991-1.9v-1.333a1.826,1.826,0,0,0-1.991-1.871,1.825,1.825,0,0,0-1.985,1.871v1.333A1.835,1.835,0,0,0-495.1,577.754Zm-3.134-.027a.758.758,0,0,0,.794-.745.787.787,0,0,0-.794-.737.785.785,0,0,0-.787.737A.751.751,0,0,0-498.231,577.727Zm-3.043,0c1.141,0,1.921-.6,1.921-1.531,0-1.07-1.05-1.3-1.539-1.46-.737-.234-1-.34-1-.595,0-.213.184-.348.489-.348a.64.64,0,0,1,.709.56v.057c0,.035.049.057.135.057h1.041a.123.123,0,0,0,.135-.135V574.3a1.765,1.765,0,0,0-1.97-1.645c-1.056,0-1.85.588-1.85,1.5,0,1.02.992,1.4,1.651,1.595.518.156.865.212.865.482,0,.134-.092.354-.489.354-.44,0-.723-.262-.723-.5v-.078c0-.043-.05-.071-.135-.071h-1.042a.122.122,0,0,0-.134.135v.07C-503.209,577.1-502.437,577.728-501.274,577.728Z" transform="translate(516.069 -570.544)" fill="#f0f0f0"/>
    </g>
  </g>
</svg>
