<svg xmlns="http://www.w3.org/2000/svg" width="19.573" height="30" viewBox="0 0 19.573 30">
    <defs>
        <style>
            .prefix__cls-1{fill:#f0f0f0}
        </style>
    </defs>
    <g id="prefix__noun_Microscope_2004830" transform="translate(-6.062 -.501)">
        <path id="prefix__Path_7957" d="M13.772 15.892a.747.747 0 0 0 1.055 0l1.324-1.324a.747.747 0 0 0 0-1.055L12.341 9.7a.747.747 0 0 0-1.055 0l-1.323 1.326a.747.747 0 0 0 0 1.055z" class="prefix__cls-1" data-name="Path 7957" transform="translate(-.337 -.707)"/>
        <path id="prefix__Path_7958" d="M22.131 5.216l1.153-1.152.678.678a.815.815 0 0 0 1.154-1.152L22.266.74a.815.815 0 0 0-1.153 1.152l.679.68-1.154 1.152z" class="prefix__cls-1" data-name="Path 7958" transform="translate(-1.303)"/>
        <path id="prefix__Path_7959" d="M6.925 22.042h12.788a.864.864 0 0 0 .864-.865V20.7a.864.864 0 0 0-.864-.865H6.925a.864.864 0 0 0-.863.865v.473a.864.864 0 0 0 .863.869z" class="prefix__cls-1" data-name="Path 7959" transform="translate(0 -1.296)"/>
        <path id="prefix__Path_7960" d="M21.831 10.586a2.414 2.414 0 0 0-1.744-2.114l.9-.893a1.066 1.066 0 0 0 0-1.515L18.76 3.853a1.087 1.087 0 0 0-1.527 0L12.462 8.59l3.753 3.728.865-.86a2.433 2.433 0 0 0 3.082 1.624A8.451 8.451 0 0 1 16.218 27.3v-5.815h-6.7v2.7H6.871a.807.807 0 0 0-.809.805v4.71a.806.806 0 0 0 .809.8h7.247a11.411 11.411 0 0 0 7.712-19.916zm-2.418 1.448a1.247 1.247 0 1 1 1.254-1.246 1.252 1.252 0 0 1-1.254 1.246z" class="prefix__cls-1" data-name="Path 7960"/>
    </g>
</svg>
