<svg xmlns="http://www.w3.org/2000/svg" width="25.124" height="30" viewBox="0 0 25.124 30">
    <defs>
        <style>
            .prefix__cls-1{fill:#f0f0f0}
        </style>
    </defs>
    <g id="prefix__noun_Unlock_1862800" transform="translate(-10.242 -2.5)">
        <g id="prefix__Group_2591" data-name="Group 2591" transform="translate(10.242 2.5)">
            <path id="prefix__Path_7955" d="M31.134 45.31c-1.8.411-5.021.821-6.158.474a14.485 14.485 0 0 1-2.276-2.211c-.6-.663-1.166-1.263-1.7-1.773a6.036 6.036 0 0 0-2.968-1.895c-1.611-.411-5.653-.884-6.789 1.8-1.2 2.811-1.011 10.137-.947 15.347a.764.764 0 0 0 .758.821h8.621a.682.682 0 0 0 .758-.695c.032-.284.316-5.242.505-8.779a6.834 6.834 0 0 0 2.558 1.737 9.385 9.385 0 0 0 2.905.379 28.065 28.065 0 0 0 5.716-.695 2.305 2.305 0 0 0 1.737-2.747 2.255 2.255 0 0 0-2.72-1.763z" class="prefix__cls-1" data-name="Path 7955" transform="translate(-10.242 -27.878)"/>
            <circle id="prefix__Ellipse_62" cx="5.242" cy="5.242" r="5.242" class="prefix__cls-1" data-name="Ellipse 62" transform="translate(.745)"/>
            <path id="prefix__Path_7956" d="M67.753 12.537h-6.064v-1.642a1.789 1.789 0 0 1 1.611-1.8 1.752 1.752 0 0 1 1.832 1.358.468.468 0 0 0 .442.379h.821a.482.482 0 0 0 .474-.537 3.473 3.473 0 0 0-3.6-2.905 3.534 3.534 0 0 0-3.284 3.568v1.611H59.1a.6.6 0 0 0-.6.6v5.905a.6.6 0 0 0 .6.6h8.684a.6.6 0 0 0 .6-.6v-5.906a.633.633 0 0 0-.631-.631zm-3.568 4.926a.3.3 0 0 1-.284.379h-.916a.3.3 0 0 1-.284-.379l.284-1.105a1.066 1.066 0 0 1-.568-.947 1.042 1.042 0 0 1 2.084 0 1.066 1.066 0 0 1-.568.947z" class="prefix__cls-1" data-name="Path 7956" transform="translate(-43.26 -5.842)"/>
        </g>
    </g>
</svg>
