<svg xmlns="http://www.w3.org/2000/svg" width="36.084" height="32" viewBox="0 0 36.084 32">
  <g id="Group_2801" data-name="Group 2801" transform="translate(-2003.872 -211.188)">
    <rect id="Rectangle_399" data-name="Rectangle 399" width="22.579" height="6.991" rx="1.24" transform="translate(2010.625 212.188)" fill="none" stroke="#f0f0f0" stroke-miterlimit="10" stroke-width="2"/>
    <rect id="Rectangle_400" data-name="Rectangle 400" width="22.579" height="12.744" rx="2.232" transform="translate(2010.625 229.443)" fill="none" stroke="#f0f0f0" stroke-miterlimit="10" stroke-width="2"/>
    <path id="Path_7909" data-name="Path 7909" d="M2036.562,217.113h-29.3a2.4,2.4,0,0,0-2.4,2.395v12.845a2.4,2.4,0,0,0,2.4,2.395h4.715v-3.563a1.521,1.521,0,0,1,1.521-1.521h16.823a1.52,1.52,0,0,1,1.52,1.521v3.563h4.716a2.394,2.394,0,0,0,2.394-2.395V219.508A2.394,2.394,0,0,0,2036.562,217.113Z" transform="translate(0 0.671)" fill="none" stroke="#f0f0f0" stroke-miterlimit="10" stroke-width="2"/>
    <line id="Line_72" data-name="Line 72" x2="5.649" transform="translate(2026.997 223.924)" fill="none" stroke="#f0f0f0" stroke-linecap="round" stroke-miterlimit="10" stroke-width="2"/>
    <line id="Line_73" data-name="Line 73" x2="11.35" transform="translate(2016.239 235.418)" fill="none" stroke="#f0f0f0" stroke-linecap="round" stroke-miterlimit="10" stroke-width="2"/>
    <line id="Line_74" data-name="Line 74" x2="11.35" transform="translate(2016.239 238.705)" fill="none" stroke="#f0f0f0" stroke-linecap="round" stroke-miterlimit="10" stroke-width="2"/>
  </g>
</svg>
