<svg xmlns="http://www.w3.org/2000/svg" width="34" height="34" viewBox="0 0 34 34">
  <path id="lab_notebook_icon" d="M580.43,202.512h-.649V182.86a.977.977,0,0,0-.982-.971h-1.8v-6.394h.133a.971.971,0,1,0,0-1.942H570.79a.971.971,0,1,0,0,1.942h.133v6.394h-3.469v-6.394h.133a.971.971,0,1,0,0-1.942h-6.338a.971.971,0,1,0,0,1.942h.063v6.394h-3.469v-6.394h.133a.971.971,0,1,0,0-1.942h-6.338a.971.971,0,1,0,0,1.942h.133v6.394h-1.8a.977.977,0,0,0-.982.971v19.652h-.649a.949.949,0,0,0-.953.943v3.155a.948.948,0,0,0,.953.943H580.43a.948.948,0,0,0,.953-.943v-3.155A.949.949,0,0,0,580.43,202.512Zm-26.7-12.563V175.495h2.146v14.454Zm9.541-4.96v-9.494h2.216v9.494Zm9.611,1.377V175.495h2.146v10.871Zm-21.938-2.535h.823v11.125a3.07,3.07,0,0,0,4.933,2.508,3.006,3.006,0,0,0,1.208-2.411V183.831h3.4v11.125a3.07,3.07,0,0,0,4.934,2.508,3.011,3.011,0,0,0,1.208-2.411V183.831h3.469v11.125a3.07,3.07,0,0,0,4.934,2.508,3.011,3.011,0,0,0,1.208-2.411V183.831h.823v18.681h-26.94Z" transform="translate(-547.383 -173.553)" fill="#f0f0f0"/>
</svg>
