<svg xmlns="http://www.w3.org/2000/svg" width="29.269" height="32.7" viewBox="0 0 29.269 32.7">
  <g id="Group_2800" data-name="Group 2800" transform="translate(-1871.466 -383.778)">
    <g id="Group_1471" data-name="Group 1471" transform="translate(1871.466 399.339)">
      <path id="Path_6726" data-name="Path 6726" d="M1878.067,401.861h-1.372v2.047h1.372a1.024,1.024,0,0,0,0-2.047Z" transform="translate(-1871.015 -397.339)" fill="#f0f0f0"/>
      <path id="Path_6727" data-name="Path 6727" d="M1883.231,401.9h-1.358v3.683h1.358C1885.452,405.588,1885.55,401.9,1883.231,401.9Z" transform="translate(-1870.537 -397.339)" fill="#f0f0f0"/>
      <path id="Path_6728" data-name="Path 6728" d="M1895.545,397.339h-23.032a1.04,1.04,0,0,0-1.047,1.028v10.28a1.041,1.041,0,0,0,1.047,1.029h23.032a1.041,1.041,0,0,0,1.047-1.029v-10.28A1.039,1.039,0,0,0,1895.545,397.339Zm-17.013,7.6h-1.4v1.085a.515.515,0,0,1-.472.563c-.021,0-.043,0-.065,0a.558.558,0,0,1-.563-.555V401.4a.57.57,0,0,1,.562-.568h1.933a1.989,1.989,0,0,1,2.077,1.89,1.768,1.768,0,0,1-.009.2,1.949,1.949,0,0,1-1.9,2.017C1878.644,404.938,1878.588,404.94,1878.532,404.939Zm5.7,1.652h-1.993a.525.525,0,0,1-.575-.457.428.428,0,0,1,0-.053v-4.667a.565.565,0,0,1,.578-.51h1.915C1887.983,400.9,1887.9,406.591,1884.233,406.591Zm7.46-4.62h-2.436v1.306h2.139a.64.64,0,0,1,.6.584.577.577,0,0,1-.6.493h-2.139v1.726a.49.49,0,0,1-.474.509h-.027a.536.536,0,0,1-.593-.46.381.381,0,0,1,0-.05v-4.666a.52.52,0,0,1,.531-.512.455.455,0,0,1,.063,0h2.938a.523.523,0,0,1,.583.445.44.44,0,0,1,0,.065A.573.573,0,0,1,1891.693,401.971Z" transform="translate(-1871.466 -397.339)" fill="#f0f0f0"/>
    </g>
    <path id="Path_6729" data-name="Path 6729" d="M1899.716,389.16l-4.4-4.368a2.5,2.5,0,0,0-1.612-.663h-14.927a2,2,0,0,0-2,1.988v9.942a.668.668,0,0,0,1.336,0v-9.94a.668.668,0,0,1,.668-.664h13.59a1.331,1.331,0,0,1,1.336,1.326h0v2.487a1.5,1.5,0,0,0,1.5,1.492h2.507a1.331,1.331,0,0,1,1.335,1.326h0v22.05a.665.665,0,0,1-.668.663h-19.6a.666.666,0,0,1-.668-.663.668.668,0,0,0-1.336,0,2,2,0,0,0,2,1.99h19.6a2,2,0,0,0,2-1.989h0V390.761A2.478,2.478,0,0,0,1899.716,389.16Z" transform="translate(0 0)" fill="#f0f0f0" stroke="#f0f0f0" stroke-miterlimit="10" stroke-width="0.7"/>
  </g>
</svg>
