<svg id="icon_mark_as_completed_and_esign" xmlns="http://www.w3.org/2000/svg" width="29.63" height="30" viewBox="0 0 29.63 30">
  <g id="Group_1455" data-name="Group 1455" transform="translate(0)">
    <path id="Path_6712" data-name="Path 6712" d="M4.485,302.994l4.561,4.618,18.9-19.138.561.586a.992.992,0,0,1,.006,1.4l-7.685,7.781a.509.509,0,0,0-.166.5.5.5,0,0,0,.371.375.5.5,0,0,0,.5-.168l7.685-7.781a2.03,2.03,0,0,0,.006-2.815l-.57-.6.2-.2a1.318,1.318,0,0,0,0-1.837l-2.746-2.78a1.276,1.276,0,0,0-1.812,0Zm-.592.824L1.078,310.4a.51.51,0,0,0,.105.557.494.494,0,0,0,.551.107l6.5-2.85ZM26.667,282.09l3.025,3.063.6-.609a1.32,1.32,0,0,0,0-1.84l-1.208-1.223a1.281,1.281,0,0,0-1.817,0Z" transform="translate(-1.037 -281.103)" fill="#f0f0f0"/>
  </g>
</svg>
