<svg xmlns="http://www.w3.org/2000/svg" width="34" height="34" viewBox="0 0 34 34">
  <g id="chat_icon" transform="translate(-598.149 -449.553)">
    <path id="Path_6" data-name="Path 6" d="M626.107,455.45h1.143a4.036,4.036,0,0,1,3.9,4.152v21.914a1.045,1.045,0,0,1-.552.934.945.945,0,0,1-.422.1.935.935,0,0,1-.608-.226l-4.61-5.254h-13.3a4.035,4.035,0,0,1-3.9-4.151" fill="none" stroke="#0b2b3a" stroke-linecap="round" stroke-miterlimit="10" stroke-width="2"/>
    <g id="Group_1353" data-name="Group 1353">
      <path id="Path_5" data-name="Path 5" d="M600.014,473.575a.842.842,0,0,1-.367-.087.928.928,0,0,1-.5-.835V454.237a3.581,3.581,0,0,1,3.459-3.684h15.568a3.579,3.579,0,0,1,3.459,3.684v11.05a3.579,3.579,0,0,1-3.459,3.683h-12.66l-4.949,4.39A.826.826,0,0,1,600.014,473.575Z" fill="none" stroke="#0b2b3a" stroke-miterlimit="10" stroke-width="2"/>
      <g id="Group_1352" data-name="Group 1352">
        <line id="Line_47" data-name="Line 47" x2="12.773" transform="translate(604.005 455.979)" fill="none" stroke="#0b2b3a" stroke-linecap="round" stroke-miterlimit="10" stroke-width="2"/>
        <line id="Line_48" data-name="Line 48" x2="12.773" transform="translate(604.005 460.03)" fill="none" stroke="#0b2b3a" stroke-linecap="round" stroke-miterlimit="10" stroke-width="2"/>
        <line id="Line_49" data-name="Line 49" x2="12.773" transform="translate(604.005 464.081)" fill="none" stroke="#0b2b3a" stroke-linecap="round" stroke-miterlimit="10" stroke-width="2"/>
      </g>
    </g>
  </g>
</svg>
