<svg xmlns="http://www.w3.org/2000/svg" width="25.571" height="25.571" viewBox="0 0 25.571 25.571">
  <g id="Group_2722" data-name="Group 2722" transform="translate(-1180.043 -277.557)">
    <g id="Group_2718" data-name="Group 2718" transform="translate(1187.471 278.128)">
      <rect id="Rectangle_422" data-name="Rectangle 422" width="10.546" height="4.579" transform="translate(3.97 10.362) rotate(-45)" fill="#ffc500" stroke="#ffc500" stroke-width="1"/>
      <path id="Path_7958" data-name="Path 7958" d="M1189.948,294.758a.786.786,0,0,0-.2.342l-.657,2.947a.692.692,0,0,0,.521.828.683.683,0,0,0,.306,0l2.922-.706a.7.7,0,0,0,.342-.2l.8-.8-3.238-3.214Z" transform="translate(-1189.078 -281.293)" fill="#ffc500" stroke="#ffc500" stroke-width="1"/>
      <path id="Path_7959" data-name="Path 7959" d="M1209.623,280.594l-2.266-2.265a.691.691,0,0,0-.974,0l-1.436,1.436,3.238,3.239,1.437-1.437A.69.69,0,0,0,1209.623,280.594Z" transform="translate(-1192.252 -278.128)" fill="#ffc500" stroke="#ffc500" stroke-width="1"/>
    </g>
    <path id="Path_7960" data-name="Path 7960" d="M1194.558,281.63h-13.516v21.2h21.611V289.234" transform="translate(0 -0.701)" fill="none" stroke="#ffc500" stroke-linecap="round" stroke-linejoin="round" stroke-width="2"/>
  </g>
</svg>
