<svg id="icon_add_textbox" xmlns="http://www.w3.org/2000/svg" width="37.313" height="49.017" viewBox="0 0 37.313 49.017">
  <g id="Group_1444" data-name="Group 1444" transform="translate(0)">
    <path id="Path_6691" data-name="Path 6691" d="M4.681,0H29.052a1.957,1.957,0,0,1,.826.275L36.9,7.435a1.19,1.19,0,0,1,.413.826V44.336a4.731,4.731,0,0,1-4.681,4.681H4.681A4.731,4.731,0,0,1,0,44.336V4.681A4.643,4.643,0,0,1,4.681,0ZM28.914,2.616V8.674h5.921Zm6.058,8.4h-7.3a1.214,1.214,0,0,1-1.1-1.239V2.341H4.681A2.413,2.413,0,0,0,2.341,4.681V44.336a2.413,2.413,0,0,0,2.341,2.341H32.632a2.413,2.413,0,0,0,2.341-2.341Z" fill="#f0f0f0"/>
    <path id="Path_6692" data-name="Path 6692" d="M43.891,87.352a1.177,1.177,0,0,1,0-2.352H55.513a1.178,1.178,0,1,1,0,2.352Z" transform="translate(-36.881 -73.299)" fill="#f0f0f0"/>
    <path id="Path_6693" data-name="Path 6693" d="M43.883,129.352a1.177,1.177,0,0,1,0-2.352H67.1a1.177,1.177,0,0,1,0,2.352Z" transform="translate(-36.835 -109.518)" fill="#f0f0f0"/>
    <path id="Path_6694" data-name="Path 6694" d="M43.883,171.352a1.177,1.177,0,0,1,0-2.352H67.1a1.177,1.177,0,0,1,0,2.352Z" transform="translate(-36.835 -145.736)" fill="#f0f0f0"/>
    <path id="Path_6695" data-name="Path 6695" d="M43.883,214.352a1.177,1.177,0,0,1,0-2.352H67.1a1.177,1.177,0,0,1,0,2.352Z" transform="translate(-36.835 -182.817)" fill="#f0f0f0"/>
    <path id="Path_6696" data-name="Path 6696" d="M43.883,256.352a1.177,1.177,0,0,1,0-2.352H67.1a1.177,1.177,0,0,1,0,2.352Z" transform="translate(-36.835 -219.036)" fill="#f0f0f0"/>
    <path id="Path_6697" data-name="Path 6697" d="M43.883,298.352a1.177,1.177,0,0,1,0-2.352H67.1a1.177,1.177,0,0,1,0,2.352Z" transform="translate(-36.835 -255.284)" fill="#f0f0f0"/>
  </g>
</svg>
