<svg xmlns="http://www.w3.org/2000/svg" width="49.82" height="43.309" viewBox="0 0 49.82 43.309">
  <g id="icon_link_a_file" transform="translate(0 0)">
    <path id="Path_6705" data-name="Path 6705" d="M68.258,27.559H54.179a1.012,1.012,0,0,1,0-2.019H68.258a1.012,1.012,0,0,1,0,2.019Z" transform="translate(-26.647 -16.594)" fill="#fcf7f6"/>
    <path id="Path_6706" data-name="Path 6706" d="M68.258,41H54.179a1.012,1.012,0,0,1,0-2.019H68.258a1.012,1.012,0,0,1,0,2.019Z" transform="translate(-26.647 -23.059)" fill="#fcf7f6"/>
    <path id="Path_6707" data-name="Path 6707" d="M73.463,54.433h-8.4a1.007,1.007,0,1,1,0-2.013h8.4a1.007,1.007,0,1,1,0,2.013Z" transform="translate(-31.852 -29.525)" fill="#fcf7f6"/>
    <path id="Path_6708" data-name="Path 6708" d="M23.351,45.249a2.076,2.076,0,0,1-2.911-2.911,4.276,4.276,0,0,0,0-6.04l-7.026-7.042A4.275,4.275,0,1,0,7.363,35.3l4.2,4.2a8.863,8.863,0,0,0-.228,5.615L4.452,38.207A8.386,8.386,0,0,1,16.309,26.344l7.042,7.042A8.4,8.4,0,0,1,23.351,45.249Z" transform="translate(-1.994 -15.799)" fill="#fcf7f6"/>
    <path id="Path_6709" data-name="Path 6709" d="M26.387,49.81A2.076,2.076,0,1,1,29.3,52.721a4.271,4.271,0,0,0,0,6.035L36.341,65.8a4.271,4.271,0,1,0,6.04-6.035l-4.4-4.411a8.822,8.822,0,0,0,.332-5.189,2.029,2.029,0,0,1,.778.488l6.227,6.227A8.39,8.39,0,1,1,33.429,68.72l-7.042-7.047A8.4,8.4,0,0,1,26.387,49.81Z" transform="translate(-12.55 -27.88)" fill="#fcf7f6"/>
    <path id="Path_6710" data-name="Path 6710" d="M67.947,15.082,62.239,9.431h0A3.944,3.944,0,0,0,59.463,8.3H42.67A4.7,4.7,0,0,0,38,13v7.893l2.844,2.859V12.991a1.847,1.847,0,0,1,1.827-1.847H59.442a1.105,1.105,0,0,1,.784.317l5.708,5.651h0a1.1,1.1,0,0,1,.337.8V45.793a1.847,1.847,0,0,1-1.806,1.847H54.818a6.445,6.445,0,0,1-2.429,2.849H64.465a4.7,4.7,0,0,0,4.67-4.67v-27.9a4.006,4.006,0,0,0-1.188-2.833Z" transform="translate(-19.315 -8.3)" fill="#fcf7f6"/>
  </g>
</svg>
