<svg id="icon_image" xmlns="http://www.w3.org/2000/svg" width="43.284" height="43.284" viewBox="0 0 43.284 43.284">
  <g id="Group_1453" data-name="Group 1453" transform="translate(0 0)">
    <path id="Path_6704" data-name="Path 6704" d="M46.572,6H8.711A2.7,2.7,0,0,0,6,8.711V46.572a2.735,2.735,0,0,0,2.711,2.711H46.572a2.735,2.735,0,0,0,2.711-2.711V8.711A2.735,2.735,0,0,0,46.572,6Zm-.69,30.713a2.711,2.711,0,0,1-4.634,1.923L40.213,37.6a2.768,2.768,0,0,0-3.845,0h0a2.768,2.768,0,0,1-3.845,0l-6.9-6.9a2.768,2.768,0,0,0-3.845,0l-7.789,7.789a2.711,2.711,0,0,1-4.634-1.923V10.88A1.453,1.453,0,0,1,10.831,9.4H44.4a1.453,1.453,0,0,1,1.479,1.479Z" transform="translate(-6 -6)" fill="#f0f0f0"/>
    <circle id="Ellipse_34" data-name="Ellipse 34" cx="3.49" cy="3.49" r="3.49" transform="translate(27.963 8.487)" fill="#f0f0f0"/>
  </g>
</svg>
