<svg id="noun_Table_231129" xmlns="http://www.w3.org/2000/svg" width="59.19" height="39.46" viewBox="0 0 59.19 39.46">
  <g id="Group_1452" data-name="Group 1452" transform="translate(0 0)">
    <g id="Group_1446" data-name="Group 1446">
      <path id="Path_6698" data-name="Path 6698" d="M57.957,43.46H1.233A1.234,1.234,0,0,1,0,42.227V5.233A1.234,1.234,0,0,1,1.233,4H57.957A1.234,1.234,0,0,1,59.19,5.233V42.227A1.234,1.234,0,0,1,57.957,43.46ZM2.466,40.994H56.724V6.466H2.466Z" transform="translate(0 -4)" fill="#f0f0f0"/>
    </g>
    <g id="Group_1447" data-name="Group 1447" transform="translate(0 7.399)">
      <path id="Path_6699" data-name="Path 6699" d="M57.957,9.466H1.233A1.233,1.233,0,1,1,1.233,7H57.957a1.233,1.233,0,0,1,0,2.466Z" transform="translate(0 -7)" fill="#f0f0f0"/>
    </g>
    <g id="Group_1448" data-name="Group 1448" transform="translate(0 17.264)">
      <path id="Path_6700" data-name="Path 6700" d="M57.957,13.466H1.233a1.233,1.233,0,0,1,0-2.466H57.957a1.233,1.233,0,0,1,0,2.466Z" transform="translate(0 -11)" fill="#f0f0f0"/>
    </g>
    <g id="Group_1449" data-name="Group 1449" transform="translate(0 27.129)">
      <path id="Path_6701" data-name="Path 6701" d="M57.957,17.466H1.233a1.233,1.233,0,0,1,0-2.466H57.957a1.233,1.233,0,0,1,0,2.466Z" transform="translate(0 -15)" fill="#f0f0f0"/>
    </g>
    <g id="Group_1450" data-name="Group 1450" transform="translate(19.834 7.399)">
      <path id="Path_6702" data-name="Path 6702" d="M9.275,39.061a1.234,1.234,0,0,1-1.233-1.233V8.233a1.233,1.233,0,0,1,2.466,0V37.828A1.234,1.234,0,0,1,9.275,39.061Z" transform="translate(-8.042 -7)" fill="#f0f0f0"/>
    </g>
    <g id="Group_1451" data-name="Group 1451" transform="translate(36.994 8.632)">
      <path id="Path_6703" data-name="Path 6703" d="M16.233,38.328A1.234,1.234,0,0,1,15,37.095V8.733a1.233,1.233,0,1,1,2.466,0V37.095A1.234,1.234,0,0,1,16.233,38.328Z" transform="translate(-15 -7.5)" fill="#f0f0f0"/>
    </g>
  </g>
</svg>
