<svg id="icon_add_plate_plan" xmlns="http://www.w3.org/2000/svg" width="43.284" height="43.105" viewBox="0 0 43.284 43.105">
  <g id="Group_1454" data-name="Group 1454" transform="translate(0 0)">
    <path id="Path_6711" data-name="Path 6711" d="M13.68,7.941a4.1,4.1,0,0,0-5.795,5.795,4.17,4.17,0,0,0,4.681.8l3.789,3.789a8.248,8.248,0,0,0-1.471,3.522H9.535A4.154,4.154,0,0,0,5.7,19.129a4.1,4.1,0,0,0,0,8.2,4.145,4.145,0,0,0,3.878-2.764h5.349a8.775,8.775,0,0,0,1.426,3.522l-3.789,3.789a4.093,4.093,0,1,0,1.159,6.6,4.17,4.17,0,0,0,.8-4.681l3.789-3.789a8.427,8.427,0,0,0,3.566,1.471v5.349A4.1,4.1,0,1,0,27.321,40.7,4.006,4.006,0,0,0,24.6,36.871V31.522a8.248,8.248,0,0,0,3.522-1.471l3.789,3.789a4.025,4.025,0,0,0,.8,4.681,4.1,4.1,0,1,0,1.159-6.6l-3.789-3.789a8.248,8.248,0,0,0,1.471-3.522H36.9a4.1,4.1,0,1,0,3.878-5.438,4.006,4.006,0,0,0-3.834,2.719H31.6a8.248,8.248,0,0,0-1.471-3.522l3.789-3.789a4.025,4.025,0,0,0,4.681-.8A4.1,4.1,0,1,0,32,12.621L28.212,16.41a8.005,8.005,0,0,0-3.477-1.426V9.635A4.154,4.154,0,0,0,27.454,5.8a4.1,4.1,0,1,0-8.2,0,4.145,4.145,0,0,0,2.764,3.878v5.349A8.248,8.248,0,0,0,18.494,16.5L14.705,12.71A4.61,4.61,0,0,0,13.68,7.941Zm-1.828,3.967a1.481,1.481,0,1,1,0-2.1A1.48,1.48,0,0,1,11.853,11.908ZM5.656,24.7A1.471,1.471,0,1,1,7.127,23.23,1.456,1.456,0,0,1,5.656,24.7Zm6.2,11.946a1.481,1.481,0,1,1,0-2.1A1.48,1.48,0,0,1,11.853,36.648Zm22.645-2.1a1.481,1.481,0,1,1,0,2.1A1.48,1.48,0,0,1,34.5,34.553Zm6.2-12.793a1.471,1.471,0,1,1-1.471,1.471A1.429,1.429,0,0,1,40.693,21.759ZM34.5,9.813a1.481,1.481,0,1,1,0,2.1A1.48,1.48,0,0,1,34.5,9.813ZM24.646,40.749a1.471,1.471,0,1,1-1.471-1.471A1.429,1.429,0,0,1,24.646,40.749ZM21.7,5.712a1.471,1.471,0,1,1,1.471,1.471A1.429,1.429,0,0,1,21.7,5.712ZM23.175,17.97a5.26,5.26,0,1,1-5.26,5.26A5.27,5.27,0,0,1,23.175,17.97Z" transform="translate(-1.6 -1.7)" fill="#f07261"/>
  </g>
</svg>
