<svg xmlns="http://www.w3.org/2000/svg" width="388.89" height="200.204" viewBox="0 0 388.89 200.204">
  <g id="Group_5" data-name="Group 5" transform="translate(-108.124 -140.799)">
    <path id="Path_1" data-name="Path 1" d="M404.46,192.827h22.472q18.461,0,26.293,3.295a26.949,26.949,0,0,1,12.6,10.946,33.526,33.526,0,0,1,4.768,18.1q0,10.984-5.265,18.37t-15.867,11.173l26.4,49.541H452.668l-25.057-47.192H425.67v47.192H404.46Zm21.21,43.556h6.646q10.119,0,13.932-2.659t3.814-8.817a10.792,10.792,0,0,0-1.888-6.345,10.482,10.482,0,0,0-5.06-3.877q-3.171-1.178-11.629-1.178H425.67Z" transform="translate(21.159)" fill="#929292"/>
    <path id="Path_2" data-name="Path 2" d="M108.124,192.827h21.059V304.256H108.124Z" fill="#919191"/>
    <path id="Path_3" data-name="Path 3" d="M335.254,189.11q20.445,0,35.158,17.387t14.713,42.391q0,24.773-14.516,41.929t-35.224,17.156q-21.693,0-36.044-17.618T284.989,248.5a66.819,66.819,0,0,1,6.685-29.85,54.6,54.6,0,0,1,18.382-21.58A43.919,43.919,0,0,1,335.254,189.11Zm-.2,24.206q-12.287,0-20.654,10.034t-8.37,25.509q0,17.243,10.538,27.276a26.386,26.386,0,0,0,18.786,7.844q11.983,0,20.412-10.176t8.432-25.085q0-14.84-8.492-25.12T335.058,213.316Z" transform="translate(13.985)" fill="#919191"/>
    <text id="YOUR_PERSONAL_LAB_ASSISTANT" data-name="YOUR PERSONAL LAB ASSISTANT" transform="translate(108.197 337.003)" fill="#ffc20a" font-size="20" font-family="CenturyGothic-Bold, Century Gothic" font-weight="700" letter-spacing="0.12em"><tspan x="0" y="0">YOUR PERSONAL LAB ASSISTANT</tspan></text>
    <g id="Group_4" data-name="Group 4" transform="translate(146.476 140.799)">
      <path id="Path_4" data-name="Path 4" d="M165.124,158.932c4.244-10.292,15.535-17.017,26.341-18.133a23.643,23.643,0,0,1-3.773,7.782q3.7,5.55,7.517,11.041a33.618,33.618,0,0,0-13.625,8.927c-2.438-3.626-4.89-7.253-7.356-10.85A45.407,45.407,0,0,1,165.124,158.932Z" transform="translate(-146.476 -140.799)" fill="#ffc20a"/>
      <path id="Path_5" data-name="Path 5" d="M207.88,207.194a34.3,34.3,0,0,0,13.449-9.162c7.078,10.6,14.316,21.114,21.466,31.67q-7.2,3.833-14.4,7.679Q218.107,222.3,207.88,207.194Z" transform="translate(-146.476 -140.799)" fill="#ffc20a"/>
      <path id="Path_51" data-name="Path 51" d="M25.225,0A25.392,25.392,0,0,1,50.451,25.556,25.392,25.392,0,0,1,25.225,51.112,25.392,25.392,0,0,1,0,25.556,25.392,25.392,0,0,1,25.225,0Z" transform="translate(28.411 18.18)" fill="#919191"/>
      <g id="Group_2" data-name="Group 2" transform="translate(34.598 22.765)">
        <g id="Group_1" data-name="Group 1">
          <path id="Path_6" data-name="Path 6" d="M197.03,164.012c10.806-2.481,22.582,5.653,23.653,16.8,1.9,11.423-8.281,22.788-19.836,22.171-9.925.279-19.043-8.075-19.674-17.971C180.13,175.289,187.427,165.7,197.03,164.012Zm-2.682,4.6c-10.886,3.979-13.246,20.136-3.91,27.025,8.9,7.941,24.838,1.843,26.044-10.042C218.755,173.793,205.148,163.458,194.348,168.608Z" transform="translate(-181.074 -163.564)" fill="#ffc20a"/>
        </g>
        <path id="Path_7" data-name="Path 7" d="M196.927,176.566c4.963-3.509,12.554,1.131,11.6,7.165-.44,5.359-7.238,8.531-11.643,5.433C192.346,186.521,192.4,179.194,196.927,176.566Z" transform="translate(-181.074 -163.564)" fill="#919191"/>
      </g>
      <g id="Group_3" data-name="Group 3" transform="translate(0 33.844)">
        <path id="Path_8" data-name="Path 8" d="M237.24,273.559c-25.934,31.311-71.693-.783-65.224-36.035a37.686,37.686,0,0,1,.964-4c2.716-10.542,10.292-18.867,18.97-25.005-4.493-2.613-9.206-5.329-12.011-9.91-4.933-6.916-5.33-16.034-2.819-23.962-6.842,5.359-13.669,10.938-18.559,18.206a66.483,66.483,0,0,0-9.441,56.807c9.809,33.269,47.7,58.969,81.136,41.395A53.1,53.1,0,0,0,257.7,253.923l-13.888,7.42A35.848,35.848,0,0,1,237.24,273.559Z" transform="translate(-146.476 -174.643)" fill="#929292"/>
        <path id="Path_9" data-name="Path 9" d="M220.119,264.738l3.855,7.206,19.842-10.6a35.923,35.923,0,0,0,1.62-9.908Z" transform="translate(-146.476 -174.643)" fill="#919191"/>
        <path id="Path_10" data-name="Path 10" d="M275.559,238.476l-1.2-2.24-15.886,8.348c-.024.364-.026.732-.026,1.091a47.693,47.693,0,0,1-.745,8.248l20.315-10.853Z" transform="translate(-146.476 -174.643)" fill="#919191"/>
        <path id="Path_11" data-name="Path 11" d="M258.475,244.584l-13.039,6.851a35.923,35.923,0,0,1-1.62,9.908l13.888-7.42a47.693,47.693,0,0,0,.745-8.248C258.449,245.316,258.451,244.948,258.475,244.584Z" transform="translate(-146.476 -174.643)" fill="#919191"/>
      </g>
      <path id="Path_12" data-name="Path 12" d="M199.555,287.934c4.8-5.4,14.14-5.477,19-.118,3,2.849,3.333,7.165,4.009,11.012,7.517,1.263,15.211,1.615,22.626,3.407a40.421,40.421,0,0,1,2.628,4.6c-26.576.235-53.166.4-79.727-.073,1.454-1.777,2.217-4.787,4.9-4.963,7.532-1.292,15.167-2.011,22.744-3.127C196.354,294.923,196.663,290.753,199.555,287.934Z" transform="translate(-146.476 -140.799)" fill="#ffc20a"/>
    </g>
  </g>
</svg>
