<svg xmlns="http://www.w3.org/2000/svg" width="367.73" height="167.174" viewBox="0 0 367.73 167.174">
  <g id="Group_19" data-name="Group 19" transform="translate(-721.984 -158.402)">
    <path id="Path_26" data-name="Path 26" d="M1018.32,210.43h22.471q18.461,0,26.293,3.3a26.938,26.938,0,0,1,12.6,10.945,33.541,33.541,0,0,1,4.768,18.1q0,10.985-5.265,18.369t-15.867,11.174l26.4,49.541h-23.186l-25.057-47.193h-1.942v47.193H1018.32Zm21.209,43.556h6.647q10.117,0,13.932-2.66t3.813-8.816a10.784,10.784,0,0,0-1.888-6.345,10.472,10.472,0,0,0-5.06-3.877q-3.17-1.177-11.628-1.179h-5.816Z" fill="#0b2b3a"/>
    <path id="Path_27" data-name="Path 27" d="M721.984,210.43h21.058V321.859H721.984Z" fill="#0b2b3a"/>
    <path id="Path_28" data-name="Path 28" d="M949.114,206.713q20.445,0,35.158,17.387t14.713,42.39q0,24.774-14.517,41.929t-35.224,17.157q-21.691,0-36.043-17.618t-14.352-41.852a66.82,66.82,0,0,1,6.684-29.851,54.61,54.61,0,0,1,18.383-21.579A43.919,43.919,0,0,1,949.114,206.713Zm-.2,24.206q-12.285,0-20.654,10.034t-8.37,25.509q0,17.242,10.538,27.276a26.389,26.389,0,0,0,18.787,7.843q11.982,0,20.412-10.175t8.431-25.085q0-14.84-8.491-25.121T948.917,230.919Z" fill="#0b2b3a"/>
    <g id="Group_18" data-name="Group 18">
      <path id="Path_29" data-name="Path 29" d="M778.984,176.535c4.243-10.293,15.534-17.017,26.341-18.133a23.627,23.627,0,0,1-3.774,7.782q3.7,5.55,7.518,11.041a33.6,33.6,0,0,0-13.626,8.927q-3.656-5.44-7.356-10.85A45.458,45.458,0,0,1,778.984,176.535Z" fill="#ffc20a"/>
      <path id="Path_30" data-name="Path 30" d="M821.74,224.8a34.321,34.321,0,0,0,13.449-9.162c7.077,10.6,14.316,21.113,21.466,31.67q-7.2,3.833-14.4,7.679Q831.967,239.9,821.74,224.8Z" fill="#ffc20a"/>
      <ellipse id="Ellipse_3" data-name="Ellipse 3" cx="25.225" cy="25.556" rx="25.225" ry="25.556" transform="translate(788.746 176.582)" fill="#0b2b3a"/>
      <g id="Group_16" data-name="Group 16">
        <g id="Group_15" data-name="Group 15">
          <path id="Path_31" data-name="Path 31" d="M810.889,181.615c10.807-2.481,22.582,5.653,23.654,16.8,1.894,11.423-8.281,22.787-19.836,22.171-9.926.279-19.044-8.076-19.675-17.972C793.99,192.891,801.287,183.3,810.889,181.615Zm-2.682,4.6c-10.885,3.979-13.245,20.135-3.91,27.025,8.906,7.941,24.838,1.843,26.044-10.042C832.615,191.4,819.007,181.06,808.207,186.211Z" fill="#ffc20a"/>
        </g>
        <path id="Path_32" data-name="Path 32" d="M810.787,194.169c4.962-3.509,12.553,1.13,11.6,7.165-.441,5.359-7.239,8.53-11.643,5.432C806.206,204.124,806.264,196.8,810.787,194.169Z" fill="#0b2b3a"/>
      </g>
      <g id="Group_17" data-name="Group 17">
        <path id="Path_33" data-name="Path 33" d="M851.1,291.162c-25.935,31.311-71.693-.783-65.225-36.036a37.61,37.61,0,0,1,.964-4c2.717-10.543,10.293-18.868,18.97-25.005-4.493-2.613-9.206-5.33-12.01-9.911-4.934-6.915-5.33-16.033-2.819-23.962-6.842,5.359-13.67,10.939-18.559,18.207a66.479,66.479,0,0,0-9.441,56.807c9.809,33.269,47.7,58.969,81.135,41.395a53.1,53.1,0,0,0,27.449-37.129l-13.889,7.421A35.854,35.854,0,0,1,851.1,291.162Z" fill="#0b2b3a"/>
        <path id="Path_34" data-name="Path 34" d="M833.978,282.341l3.855,7.2,19.842-10.6a35.925,35.925,0,0,0,1.621-9.908Z" fill="#0b2b3a"/>
        <path id="Path_35" data-name="Path 35" d="M889.419,256.078l-1.2-2.239-15.886,8.347c-.023.365-.025.733-.026,1.091a47.684,47.684,0,0,1-.744,8.248l20.314-10.853Z" fill="#0b2b3a"/>
        <path id="Path_36" data-name="Path 36" d="M872.334,262.186,859.3,269.038a35.925,35.925,0,0,1-1.621,9.908l13.889-7.421a47.684,47.684,0,0,0,.744-8.248C872.309,262.919,872.311,262.551,872.334,262.186Z" fill="#0b2b3a"/>
      </g>
      <path id="Path_37" data-name="Path 37" d="M813.415,305.536c4.8-5.4,14.139-5.476,19-.117,2.995,2.848,3.333,7.165,4.008,11.012,7.518,1.263,15.212,1.615,22.626,3.406a40.668,40.668,0,0,1,2.629,4.6c-26.576.235-53.166.4-79.727-.073,1.453-1.777,2.217-4.787,4.9-4.963,7.532-1.292,15.167-2.012,22.743-3.128C810.214,312.525,810.522,308.355,813.415,305.536Z" fill="#ffc20a"/>
    </g>
  </g>
</svg>
