<svg xmlns="http://www.w3.org/2000/svg" width="144" height="144" viewBox="0 0 144 144">
    <defs>
        <style>
            .cls-1{fill:#f0f0f0}
        </style>
    </defs>
    <g id="icon_storage_locations" transform="translate(-1702.234 -81.426)">
        <path id="Path_7971" d="M1717.718 155.555h69.682V99.813h-69.677zm27.869-51.1h13.938v4.645h-13.938zm-23.223 0h18.581v9.293h23.222v-9.293h18.581v46.454h-60.384z" class="cls-1" data-name="Path 7971" transform="translate(58.839 69.871)"/>
        <path id="Rectangle_484" d="M0 0H4.645V4.645H0z" class="cls-1" data-name="Rectangle 484" transform="translate(1832.299 211.488)"/>
        <path id="Rectangle_485" d="M0 0H4.645V4.645H0z" class="cls-1" data-name="Rectangle 485" transform="translate(1823.009 211.488)"/>
        <path id="Rectangle_486" d="M0 0H4.645V4.645H0z" class="cls-1" data-name="Rectangle 486" transform="translate(1813.718 211.488)"/>
        <path id="Path_7972" d="M1841.588 127.876h-4.642v-46.45h-60.389v46.45h-4.646v-46.45h-60.384v46.45h-4.646a4.65 4.65 0 0 0-4.646 4.646v4.642a4.65 4.65 0 0 0 4.646 4.646h12.219a18.444 18.444 0 0 0 7.718 20.126 34.892 34.892 0 0 0-24.585 33.293 11.615 11.615 0 0 0 6.97 10.627v19.57h62.707v-30.2a34.893 34.893 0 0 0-24.585-33.293 18.448 18.448 0 0 0 7.718-20.126h86.544a4.65 4.65 0 0 0 4.646-4.646v-4.642a4.65 4.65 0 0 0-4.645-4.643zm-41.8-41.808h13.934v4.646h-13.934zm-18.581 0h13.935v9.292h23.227v-9.292h13.931v41.808h-13.935v-9.293h-23.227v9.293H1781.2zm32.515 41.808h-13.934v-4.646h13.934zm-78.972-41.808h13.934v4.646h-13.934zm-18.582 0h13.932v9.292h23.227v-9.292h13.935v41.808h-13.932v-9.293h-23.23v9.293h-13.935zm18.582 41.808v-4.646h13.934v4.646zm-27.869 9.288v-4.642h17.942a18.736 18.736 0 0 0-3.816 4.642zm6.964 69.682h9.293v13.934h-9.293zm22.066-16.262h-8.126v-11.612h16.257v11.611h11.611v30.2h-27.868v-13.938h8.126a8.131 8.131 0 0 0 0-16.262zm12.772-8.328l3.687 3.686h-3.687zm18.581 12.974v25.55h-6.964V187.3l-12.974-12.974h-24.188v16.258h-6.97v4.646h19.743a3.485 3.485 0 0 1 0 6.97h-22.066a6.974 6.974 0 0 1-6.964-6.97 30.192 30.192 0 1 1 60.384 0zm-30.192-34.838a13.934 13.934 0 1 1 13.935-13.934 13.948 13.948 0 0 1-13.935 13.933zm104.516-23.227h-88.445a18.635 18.635 0 0 0-3.82-4.642h92.266z" class="cls-1" data-name="Path 7972"/>
        <path id="Rectangle_487" d="M0 0H23.226V4.645H0z" class="cls-1" data-name="Rectangle 487" transform="translate(1813.718 202.198)"/>
    </g>
</svg>
