<svg xmlns="http://www.w3.org/2000/svg" width="144" height="144" viewBox="0 0 144 144">
    <defs>
        <style>
            .cls-1{fill:#f0f0f0}
        </style>
    </defs>
    <g id="icon_add_new_sample" transform="translate(-1 -1)">
        <g id="Layer_17" data-name="Layer 17" transform="translate(1 1)">
            <path id="Path_6683" d="M15.29 51a9.289 9.289 0 1 0 9.29 9.289A9.29 9.29 0 0 0 15.29 51zm0 13.933a4.644 4.644 0 1 1 4.645-4.644 4.645 4.645 0 0 1-4.645 4.644z" class="cls-1" data-name="Path 6683" transform="translate(5.613 65.112)"/>
            <path id="Path_6684" d="M23.968 53a6.967 6.967 0 1 0 6.968 6.967A6.967 6.967 0 0 0 23.968 53zm0 9.289a2.322 2.322 0 1 1 2.323-2.322 2.322 2.322 0 0 1-2.323 2.322z" class="cls-1" data-name="Path 6684" transform="translate(20.161 67.756)"/>
            <path id="Path_6685" d="M29.968 47a6.967 6.967 0 1 0 6.968 6.967A6.967 6.967 0 0 0 29.968 47zm0 9.289a2.322 2.322 0 1 1 2.323-2.322 2.322 2.322 0 0 1-2.323 2.322z" class="cls-1" data-name="Path 6685" transform="translate(28.097 59.823)"/>
            <path id="Rectangle_230" d="M0 0H3.983V3.983H0z" class="cls-1" data-name="Rectangle 230" transform="translate(23.9 107.15)"/>
            <path id="Rectangle_231" d="M0 0H3.983V3.983H0z" class="cls-1" data-name="Rectangle 231" transform="translate(32.863 107.15)"/>
            <path id="Rectangle_232" d="M0 0H4.979V4.979H0z" class="cls-1" data-name="Rectangle 232" transform="translate(69.71 130.051)"/>
            <path id="Rectangle_233" d="M0 0H3.983V4.979H0z" class="cls-1" data-name="Rectangle 233" transform="translate(60.747 130.051)"/>
            <path id="Path_6686" d="M71.517 55.538V39.644h4.645V35h-27.87v4.644h4.645v15.894a23.225 23.225 0 1 0 18.581 0zm-4.645-15.894v4.644h-9.29v-4.644zM56.033 59.3a2.322 2.322 0 0 0 1.549-2.19v-8.177h9.29v8.181a2.322 2.322 0 0 0 1.549 2.19 18.579 18.579 0 0 1 11.746 12.875 6.92 6.92 0 0 0-4.685 2.021l-1.923 1.92a2.323 2.323 0 0 1-1.644.68h-.795a2.323 2.323 0 0 1-1.644-.68l-1.923-1.92a6.929 6.929 0 0 0-4.929-2.041h-.794A6.929 6.929 0 0 0 56.9 74.2l-1.922 1.92a2.323 2.323 0 0 1-1.644.68h-.794a2.323 2.323 0 0 1-1.644-.68l-1.924-1.92a6.92 6.92 0 0 0-4.685-2.018A18.579 18.579 0 0 1 56.033 59.3zm6.194 36.074A18.6 18.6 0 0 1 43.646 76.8h.4a2.323 2.323 0 0 1 1.644.68l1.921 1.92a6.917 6.917 0 0 0 4.929 2.041h.794a6.917 6.917 0 0 0 4.928-2.041l1.923-1.923a2.323 2.323 0 0 1 1.644-.68h.794a2.323 2.323 0 0 1 1.644.68l1.925 1.923a6.917 6.917 0 0 0 4.929 2.041h.794a6.917 6.917 0 0 0 4.928-2.041l1.923-1.923a2.323 2.323 0 0 1 1.644-.68h.4a18.6 18.6 0 0 1-18.583 18.581z" class="cls-1" data-name="Path 6686" transform="translate(49.257 43.956)"/>
            <path id="Rectangle_234" d="M0 0H3.983V4.979H0z" class="cls-1" data-name="Rectangle 234" transform="translate(104.565 130.051)"/>
            <path id="Rectangle_235" d="M0 0H3.983V4.979H0z" class="cls-1" data-name="Rectangle 235" transform="translate(114.523 130.051)"/>
            <path id="Path_6687" d="M108.689 21.9l2.787-4.644h11.306l6.292 10.485a2.323 2.323 0 0 0 1.99 1.126H145v-4.645h-12.621l-5.579-9.289 6.25-10.415-3.981-2.392-6.292 10.485h-11.301l-6.292-10.485A2.323 2.323 0 0 0 103.194 1H89.258v4.644h12.621l5.574 9.289-2.787 4.644-2.787 4.644H90.573l-6.292-10.484a2.323 2.323 0 0 0-1.99-1.126H68.355a2.322 2.322 0 0 0-1.99 1.126l-6.292 10.485H47.452a2.322 2.322 0 0 0-1.99 1.126L38.493 36.96a2.322 2.322 0 0 0-.332 1.2h-6.967a6.967 6.967 0 0 0-2.323 13.536v25.35L2.417 125.532A11.656 11.656 0 0 0 1 131.092v2.276a11.626 11.626 0 0 0 11.613 11.611H73a11.626 11.626 0 0 0 11.613-11.611v-2.276a11.656 11.656 0 0 0-1.417-5.559L56.742 77.042v-25.35a6.967 6.967 0 0 0-2.323-13.536H43.192l5.574-9.289h11.307l6.292 10.485 3.981-2.392L64.1 26.545l5.574-9.289h11.302l2.787 4.644 2.787 4.644L80.3 36.96a2.322 2.322 0 0 0 0 2.392l6.25 10.415-6.25 10.415 3.981 2.392 6.292-10.485h11.306l2.787 4.644 2.787 4.644-5.574 9.289H89.258v4.644h13.935a2.322 2.322 0 0 0 1.99-1.126l6.293-10.484h11.306l5.96 9.932v1.679h4.645v-2.322a2.322 2.322 0 0 0-.332-1.2L126.8 61.378l5.574-9.289H145v-4.644h-12.621l-6.292-10.485a2.323 2.323 0 0 0-1.99-1.126h-12.621l-2.787-4.644-2.789-4.645zM79.968 131.092v2.276A6.967 6.967 0 0 1 73 140.334H12.613a6.967 6.967 0 0 1-6.968-6.967v-2.276a6.979 6.979 0 0 1 .849-3.336l15.943-29.221h2.186a2.323 2.323 0 0 1 1.644.68l1.923 1.923a6.917 6.917 0 0 0 4.929 2.041h.794a6.917 6.917 0 0 0 4.929-2.041l1.923-1.923a2.323 2.323 0 0 1 1.644-.68h.791a2.323 2.323 0 0 1 1.644.68l1.923 1.923a6.917 6.917 0 0 0 4.929 2.041h.794a6.917 6.917 0 0 0 4.929-2.041l1.923-1.923a2.323 2.323 0 0 1 1.644-.68h2.186l15.942 29.221a6.98 6.98 0 0 1 .85 3.337zM60.66 93.922a6.9 6.9 0 0 0-4.6 2.009l-1.923 1.923a2.323 2.323 0 0 1-1.644.68H51.7a2.323 2.323 0 0 1-1.644-.68l-1.923-1.923A6.929 6.929 0 0 0 43.2 93.89h-.794a6.929 6.929 0 0 0-4.929 2.041l-1.923 1.923a2.323 2.323 0 0 1-1.644.68h-.794a2.323 2.323 0 0 1-1.644-.68l-1.923-1.923a6.9 6.9 0 0 0-4.6-2.009l8.28-15.176a2.322 2.322 0 0 0 .283-1.112v-20.9H52.1v20.9a2.322 2.322 0 0 0 .283 1.112zm-3.918-48.8a2.322 2.322 0 0 1-2.323 2.322 2.322 2.322 0 0 0-2.319 2.323v2.322H33.516v-2.322a2.322 2.322 0 0 0-2.323-2.322 2.322 2.322 0 1 1 0-4.644h23.226a2.322 2.322 0 0 1 2.323 2.322zM85 38.156l2.787-4.644 2.787-4.644h11.306l2.787 4.644 2.787 4.644-2.788 4.644-2.787 4.644H90.573zm43.358 11.611l-5.574 9.289h-11.308l-2.787-4.644-2.789-4.645 2.787-4.644 2.787-4.644h11.306z" class="cls-1" data-name="Path 6687" transform="translate(-1 -1)"/>
            <path id="Path_6688" d="M17.968 22.933A6.967 6.967 0 1 0 11 15.967a6.967 6.967 0 0 0 6.968 6.966zm0-9.289a2.322 2.322 0 1 1-2.323 2.322 2.322 2.322 0 0 1 2.323-2.322z" class="cls-1" data-name="Path 6688" transform="translate(12.226 9.578)"/>
            <path id="Path_6689" d="M26.29 19.578A9.289 9.289 0 1 0 17 10.289a9.29 9.29 0 0 0 9.29 9.289zm0-13.933a4.644 4.644 0 1 1-4.645 4.644 4.645 4.645 0 0 1 4.645-4.645z" class="cls-1" data-name="Path 6689" transform="translate(20.161 -1)"/>
            <path id="Path_6690" d="M12.613 24.222A11.611 11.611 0 1 0 1 12.611a11.612 11.612 0 0 0 11.613 11.611zm0-18.578a6.967 6.967 0 1 1-6.968 6.967 6.967 6.967 0 0 1 6.968-6.967z" class="cls-1" data-name="Path 6690" transform="translate(-1 -1)"/>
        </g>
    </g>
</svg>
