<svg xmlns="http://www.w3.org/2000/svg" width="46" height="46" viewBox="0 0 46 46">
  <g id="icon_user" transform="translate(558 2354)">
    <circle id="Ellipse_32" data-name="Ellipse 32" cx="23" cy="23" r="23" transform="translate(-558 -2354)" fill="#0b2b3a"/>
    <g id="Group_260" data-name="Group 260" transform="translate(-544 -2344)">
      <path id="Path_190" data-name="Path 190" d="M-266.718,460a5.64,5.64,0,0,0-5.571,5.675,5.518,5.518,0,0,0,5.571,5.476,5.516,5.516,0,0,0,5.571-5.471h0A5.64,5.64,0,0,0-266.718,460Zm0,12.349a9.1,9.1,0,0,0-9.285,8.89v3.447A1.347,1.347,0,0,0-274.636,486h15.822a1.345,1.345,0,0,0,1.378-1.311v0h0v-3.447A9.1,9.1,0,0,0-266.718,472.35Z" transform="translate(276.003 -459.999)" fill="#f0f0f0"/>
    </g>
  </g>
</svg>
